<?xml version="1.0" encoding="UTF-8"?>
<svg version="1.1" xmlns="http://www.w3.org/2000/svg" width="2000" height="2008">
<path d="M0 0 C2.81893004 0.00110398 5.63783938 -0.00389729 8.45676476 -0.00860542 C15.13785288 -0.01953388 21.81888473 -0.02023451 28.49997735 -0.01409125 C34.51404054 -0.00873308 40.52793381 -0.01582429 46.54196954 -0.03459907 C78.74216278 -0.13274196 110.79378539 -0.21299752 142.84690118 3.30158257 C144.84490317 3.50360021 146.84301992 3.70448848 148.84128594 3.9038775 C153.49871037 4.38483775 158.14182074 4.94504652 162.78440118 5.55158257 C163.58567437 5.65418389 164.38694757 5.75678521 165.21250176 5.86249566 C205.21822563 11.01896121 244.68011719 19.09664582 282.84690118 32.30158257 C283.76503594 32.61418023 284.68317071 32.92677789 285.62912774 33.2488482 C324.66413657 46.6062051 362.92281435 64.97311342 393.47580743 93.11798882 C395.11167904 94.62449991 396.76669703 96.1103925 398.43674493 97.57892632 C403.68019456 102.19158503 408.43921335 106.88720061 412.84690118 112.30158257 C414.09600274 113.81171929 414.09600274 113.81171929 415.37033868 115.35236382 C422.31757551 123.87868648 428.31356214 132.80257046 433.84690118 142.30158257 C434.23088067 142.9543316 434.61486016 143.60708062 435.0104754 144.27960992 C446.35718778 163.81337448 453.20148933 185.27882164 457.84690118 207.30158257 C458.02536584 208.13600381 458.2038305 208.97042504 458.38770318 209.83013177 C460.14677806 219.06608991 460.19295348 228.17494477 460.21799493 237.53986382 C460.22699873 239.30932955 460.23612098 241.07879467 460.24535394 242.84825921 C460.26177155 246.55399168 460.26952837 250.25963475 460.27243829 253.96540093 C460.27670599 257.69746612 460.29728897 261.42882767 460.33396173 265.16071343 C460.55827036 288.41552345 459.65794029 310.49162462 454.84690118 333.30158257 C454.71280658 333.93791242 454.57871198 334.57424226 454.4405539 335.22985482 C450.21629161 355.19601096 444.87132457 374.81113139 438.84690118 394.30158257 C438.46695001 395.53344293 438.08699883 396.76530328 437.69553399 398.03449273 C428.05078405 428.9164757 415.40281018 458.43814431 400.84690118 487.30158257 C400.32885919 488.33347711 399.81081719 489.36537164 399.27707696 490.4285357 C381.79196701 525.0954482 360.87057938 558.86424531 337.14475274 589.61115289 C335.16160104 592.19417441 333.22617831 594.81238792 331.28440118 597.42658257 C319.91953765 612.56613148 308.01068141 627.31680452 295.72751641 641.71979547 C292.90003423 645.03856494 290.14067829 648.40342272 287.40940118 651.80158257 C283.03238998 657.18444195 278.35135991 662.244296 273.62033868 667.31330132 C271.48335803 669.60516667 269.3946677 671.92917015 267.34690118 674.30158257 C263.41747786 678.83698924 259.33793674 683.23237494 255.25363946 687.62775445 C253.14791659 689.89537373 251.04969984 692.16940075 248.95993829 694.45172906 C238.9362735 705.34995004 228.4841007 715.81870787 218.00412774 726.27472711 C215.45940418 728.81370012 212.91927372 731.35721401 210.38039613 733.90203118 C208.39175809 735.89430514 206.40071725 737.88416415 204.40897012 739.8733294 C203.02301661 741.25831004 201.63904326 742.64527134 200.25513482 744.03229547 C195.80627281 748.46475842 191.2990429 752.75608885 186.53534722 756.84894586 C184.51155893 758.59009073 182.56247203 760.3993643 180.62815118 762.23908257 C179.5704754 763.24068414 179.5704754 763.24068414 178.49143243 764.26252007 C177.78373712 764.9354107 177.0760418 765.60830132 176.34690118 766.30158257 C171.52384966 770.88743484 166.6571787 775.39148717 161.62863946 779.75177789 C159.39825076 781.69183098 157.21612105 783.6820856 155.03440118 785.67658257 C150.76379967 789.53180643 146.35916449 793.17740773 141.88596368 796.79377007 C138.37632432 799.68989921 134.95665983 802.67832832 131.53440118 805.67658257 C126.22976427 810.31118829 120.82370601 814.75843463 115.25339532 819.06891656 C110.57721792 822.69623174 106.02025598 826.45324911 101.47190118 830.23908257 C94.83921048 835.74003415 88.06067775 840.9840018 81.13596368 846.11017632 C77.11200983 849.09077778 73.13576542 852.13127192 69.16159844 855.17780328 C59.57108916 862.52759632 49.8735499 869.6986203 40.0441668 876.72492242 C37.82044577 878.3205658 35.60589974 879.92818762 33.39377618 881.53986382 C25.99342114 886.92840346 18.54974502 892.23982486 10.98752618 897.39923882 C10.17149423 897.95664254 9.35546227 898.51404626 8.51470208 899.088341 C-0.44086916 905.19522819 -9.44489124 911.2289578 -18.46559882 917.23908257 C-19.31305671 917.80396386 -20.16051459 918.36884515 -21.03365302 918.95084405 C-33.9705185 927.56908793 -46.96131066 936.07712223 -60.15309882 944.30158257 C-61.83148607 945.35496507 -63.50987146 946.40835053 -65.18825507 947.46173882 C-95.89009514 966.66098529 -127.29155746 984.76236257 -159.26686835 1001.75177789 C-163.19352259 1003.8602537 -167.08430555 1006.03242527 -170.97121406 1008.21320367 C-173.15309882 1009.30158257 -173.15309882 1009.30158257 -175.15309882 1009.30158257 C-171.62006011 1013.23128099 -167.49242934 1015.83658534 -163.09059882 1018.67658257 C-147.41055827 1028.97590352 -132.54028941 1040.27127332 -118.15309882 1052.30158257 C-117.5622248 1052.79335992 -116.97135077 1053.28513726 -116.36257148 1053.79181695 C-102.26618988 1065.55909454 -88.18861487 1077.95994833 -76.20778632 1091.91095757 C-74.66559352 1093.70529597 -73.10518507 1095.48400466 -71.53591132 1097.25470757 C-59.26868752 1111.18000126 -48.11287289 1126.02778219 -39.15309882 1142.30158257 C-38.68661933 1143.14172906 -38.22013984 1143.98187554 -37.7395246 1144.84748101 C-30.34451669 1158.26919469 -24.06250901 1171.78025068 -19.15309882 1186.30158257 C-18.90479316 1187.03006402 -18.65648749 1187.75854547 -18.40065742 1188.50910211 C-12.54993856 1206.02071316 -9.05446432 1224.86222398 -8.94997382 1243.34064507 C-8.94295951 1244.17587701 -8.9359452 1245.01110894 -8.92871833 1245.87165093 C-8.911297 1248.55668359 -8.90486458 1251.24149545 -8.90309882 1253.92658257 C-8.90208671 1255.30484216 -8.90208671 1255.30484216 -8.90105414 1256.71094537 C-8.91747209 1270.78465446 -9.466724 1284.45037192 -12.15309882 1298.30158257 C-12.32470527 1299.21891168 -12.49631171 1300.13624078 -12.67311835 1301.08136773 C-25.82411714 1370.0330298 -62.30478009 1432.0415111 -107.78346992 1484.7097857 C-109.22409357 1486.38409341 -110.65241285 1488.06832721 -112.07888007 1489.75470757 C-121.03392415 1500.31859927 -130.27996713 1510.53863916 -140.14528632 1520.26252007 C-142.04738263 1522.19422099 -143.82745829 1524.18071852 -145.59059882 1526.23908257 C-151.5865967 1533.20665418 -158.1762633 1539.55479164 -165.15700507 1545.52423882 C-167.41442508 1547.53427034 -169.53045595 1549.64991211 -171.65309882 1551.80158257 C-174.9629658 1555.15091986 -178.36056831 1558.30084214 -181.93434882 1561.36408257 C-184.13670876 1563.28727013 -186.28550523 1565.26188787 -188.42848945 1567.25080132 C-193.53055863 1571.98334326 -198.74511506 1576.48682903 -204.16872382 1580.85236382 C-207.74586512 1583.78805439 -211.23044141 1586.8203263 -214.71559882 1589.86408257 C-219.54635655 1594.07461861 -224.41645657 1598.19762933 -229.45388007 1602.16095757 C-231.57221507 1603.84091066 -233.66973212 1605.53862727 -235.75856757 1607.25470757 C-243.05802167 1613.24717397 -250.43276706 1619.08772955 -258.01760077 1624.71515679 C-263.06011399 1628.46144282 -268.02161762 1632.30145426 -272.96559882 1636.17658257 C-282.22082083 1643.41277361 -291.65653604 1650.3864742 -301.15309882 1657.30158257 C-301.88464179 1657.83606011 -302.61618476 1658.37053765 -303.3698957 1658.92121148 C-322.59996143 1672.96365167 -342.2188756 1686.40582108 -362.02809882 1699.61408257 C-362.84918128 1700.16180322 -363.67026374 1700.70952386 -364.51622748 1701.2738421 C-375.6694501 1708.70881283 -386.8763964 1716.05525272 -398.15309882 1723.30158257 C-399.03030585 1723.86562799 -399.90751288 1724.4296734 -400.81130195 1725.01081109 C-423.18336243 1739.34008568 -446.02541104 1752.91264824 -468.97902656 1766.28389764 C-472.77945216 1768.49810131 -476.57361085 1770.72265274 -480.36403632 1772.95392632 C-501.99799682 1785.6712348 -523.98036014 1797.75466889 -546.07790351 1809.64484429 C-549.2229037 1811.33918943 -552.36385517 1813.04088376 -555.50466132 1814.74298882 C-575.55768567 1825.58058306 -595.8327449 1835.97589069 -616.15309882 1846.30158257 C-616.83450934 1846.6483001 -617.51591987 1846.99501763 -618.21797919 1847.35224175 C-633.60829748 1855.18258061 -649.11465525 1862.69742 -664.80544257 1869.90705132 C-669.89812343 1872.2497532 -674.97123746 1874.62908338 -680.03200507 1877.03986382 C-742.59984384 1906.82212137 -806.874043 1932.92275397 -872.00960517 1956.5235064 C-874.05905368 1957.26744471 -876.10707067 1958.01517194 -878.15456367 1958.7644732 C-937.34267129 1980.40752184 -998.56126693 1998.92554668 -1061.15309882 2007.30158257 C-1062.95134101 2007.56878106 -1062.95134101 2007.56878106 -1064.78591132 2007.8413775 C-1070.30900045 2008.52101482 -1075.84515386 2008.50292869 -1081.40309882 2008.53986382 C-1082.57461493 2008.54793557 -1083.74613105 2008.55600732 -1084.95314765 2008.56432366 C-1087.42749809 2008.57810958 -1089.9018671 2008.5888561 -1092.37624335 2008.59674859 C-1094.87988171 2008.60823911 -1097.38349613 2008.62864397 -1099.88698554 2008.65827203 C-1122.2212031 2008.92208521 -1142.92169919 2008.01028992 -1159.96559882 1991.64923882 C-1173.13870789 1977.51166998 -1173.86561492 1960.8137044 -1173.32790351 1942.44367242 C-1172.22977118 1922.70489722 -1163.39162508 1903.46866275 -1154.15309882 1886.30158257 C-1153.80521308 1885.64593316 -1153.45732734 1884.99028375 -1153.0988996 1884.31476617 C-1139.11070515 1858.07329749 -1120.13925053 1834.47079579 -1100.18044257 1812.54767632 C-1098.40278895 1810.57821422 -1096.68099745 1808.57498296 -1094.96559882 1806.55158257 C-1087.66100863 1798.17178401 -1079.61248004 1790.18021816 -1071.12966132 1782.99689507 C-1068.64449688 1780.86535087 -1066.24869736 1778.64474658 -1063.84059882 1776.42658257 C-1058.43823362 1771.5065714 -1052.86466762 1766.85705635 -1047.15309882 1762.30158257 C-1046.1295832 1761.48302789 -1045.10606757 1760.6644732 -1044.05153632 1759.82111382 C-1005.58073458 1729.23484814 -964.43057089 1702.29693274 -922.15309882 1677.30158257 C-921.14988593 1676.70845269 -920.14667304 1676.11532281 -919.11305976 1675.50421929 C-877.20677939 1650.78483574 -834.27692345 1627.33417792 -790.18190742 1606.72248101 C-787.42800187 1605.43054725 -784.68003842 1604.12669351 -781.93402839 1602.81807733 C-708.74400984 1567.95470829 -633.14280723 1538.34353024 -556.56471992 1511.83234429 C-552.84585361 1510.54412034 -549.13182702 1509.24247842 -545.41872382 1507.93775201 C-449.84077724 1474.38417886 -449.84077724 1474.38417886 -416.15309882 1487.30158257 C-412.59059749 1489.10438063 -410.40459778 1490.92433414 -408.15309882 1494.30158257 C-407.45974631 1498.98574318 -407.66038178 1503.10498404 -409.46559882 1507.48908257 C-422.91109979 1521.55995568 -445.29931543 1524.66925963 -463.40654731 1529.6226275 C-481.82207657 1534.66849067 -500.01017363 1540.35518137 -518.15309882 1546.30158257 C-518.92484443 1546.55403741 -519.69659003 1546.80649224 -520.49172187 1547.06659722 C-559.43783831 1559.8283356 -597.57848137 1574.64597569 -635.00283027 1591.34430718 C-637.09212597 1592.27443815 -639.18409796 1593.1982363 -641.27712226 1594.11994195 C-661.11626145 1602.8681943 -680.56847101 1612.36800719 -699.96559882 1622.05158257 C-701.10455604 1622.61922326 -702.24351325 1623.18686395 -703.41698432 1623.77170587 C-717.70331057 1630.90280992 -731.82948524 1638.26706673 -745.79930854 1646.0000689 C-748.54161342 1647.5164093 -751.29102684 1649.01939834 -754.04172492 1650.52043939 C-769.90444174 1659.18124538 -785.61006897 1668.07706552 -801.15309882 1677.30158257 C-802.16823554 1677.9032525 -803.18337226 1678.50492242 -804.2292707 1679.12482476 C-825.53318764 1691.77277795 -846.542212 1704.80447139 -867.15309882 1718.55158257 C-867.83380439 1719.00558434 -868.51450995 1719.45958611 -869.21584296 1719.92734551 C-882.2565273 1728.63566769 -895.2855677 1737.38539301 -907.96559882 1746.61408257 C-908.70221747 1747.14839898 -909.43883613 1747.68271539 -910.19777656 1748.2332232 C-912.5186577 1749.91935645 -914.8364435 1751.60964874 -917.15309882 1753.30158257 C-917.93620429 1753.87312066 -918.71930976 1754.44465875 -919.5261457 1755.03351617 C-945.19279872 1773.79112524 -970.34836629 1793.24519398 -994.51589179 1813.90705132 C-996.24430982 1815.37927378 -997.98136744 1816.84085227 -999.71950507 1818.30158257 C-1006.06627305 1823.65720208 -1012.12784568 1829.12536756 -1017.93044257 1835.07892632 C-1019.91333431 1837.06181806 -1021.94336765 1838.87637866 -1024.09059882 1840.67658257 C-1029.59617195 1845.42238661 -1034.38726291 1850.83161613 -1039.15309882 1856.30158257 C-1039.68660956 1856.9121148 -1040.22012031 1857.52264703 -1040.76979804 1858.15168023 C-1052.2747469 1871.44952027 -1063.78214843 1885.91427568 -1063.46950507 1904.23517632 C-1062.93343557 1909.43041776 -1060.58104785 1911.87363355 -1057.02809882 1915.42658257 C-1045.14993639 1923.17321025 -1031.50105441 1923.72146555 -1017.71559882 1923.67658257 C-1016.99490211 1923.67504174 -1016.27420539 1923.67350091 -1015.53166938 1923.67191339 C-930.32772152 1923.24264784 -844.1369423 1877.87780313 -768.15309882 1837.30158257 C-766.77299628 1836.56319146 -766.77299628 1836.56319146 -765.36501288 1835.80988336 C-750.50945007 1827.8460509 -735.7878384 1819.66360555 -721.15309882 1811.30158257 C-720.13522285 1810.72182672 -719.11734687 1810.14207086 -718.06862617 1809.54474664 C-704.3712918 1801.73648141 -690.81093743 1793.73110259 -677.35817695 1785.51105523 C-670.10142443 1781.07852776 -662.80429102 1776.72241817 -655.46559882 1772.42658257 C-647.63089237 1767.82925325 -639.96161741 1763.03529933 -632.36794257 1758.05158257 C-627.79359911 1755.05172965 -623.16150692 1752.14652765 -618.52809882 1749.23908257 C-611.06326816 1744.54146464 -603.69692651 1739.72027186 -596.38112617 1734.79474664 C-593.75531809 1733.03500062 -591.12053445 1731.2891113 -588.48513007 1729.54377007 C-577.2571959 1722.10137627 -566.11891254 1714.56716863 -555.16091132 1706.73273492 C-552.39767342 1704.76312152 -549.62091073 1702.8129756 -546.84474921 1700.86164117 C-525.60997047 1685.92595342 -504.63640625 1670.62085434 -484.06960273 1654.77716851 C-482.28054132 1653.39970518 -480.4889008 1652.02569372 -478.69606757 1650.65314507 C-466.58918722 1641.37813546 -454.64095436 1631.9238881 -442.82106757 1622.28595757 C-439.96717269 1619.9599717 -437.09818047 1617.65448701 -434.21559882 1615.36408257 C-422.34976521 1605.89538707 -410.70213689 1596.15305119 -399.15309882 1586.30158257 C-398.57430976 1585.8091607 -397.9955207 1585.31673882 -397.39919257 1584.80939507 C-390.64615632 1579.06275083 -383.94779861 1573.27169297 -377.37966132 1567.31330132 C-375.32205491 1565.45423588 -373.24463119 1563.622299 -371.15309882 1561.80158257 C-362.92463121 1554.62635882 -354.87045042 1547.25452835 -346.84293342 1539.85598016 C-345.77712207 1538.87559156 -344.70973719 1537.89690828 -343.64014411 1536.92064691 C-331.56063998 1525.89331194 -320.02136495 1514.32436303 -308.47096992 1502.74982476 C-305.68985871 1499.96296767 -302.90421127 1497.18069453 -300.11725593 1494.39968324 C-297.939691 1492.22575138 -295.76453705 1490.04941966 -293.59008002 1487.87237954 C-292.5639063 1486.84554671 -291.53701149 1485.8194339 -290.50933051 1484.79410958 C-285.3804641 1479.67444898 -280.32886155 1474.52867596 -275.62245917 1469.01248956 C-273.05713093 1466.02544965 -270.34582225 1463.17338774 -267.65309882 1460.30158257 C-263.06102551 1455.37635502 -258.53367314 1450.41684441 -254.15309882 1445.30158257 C-253.23011227 1444.23240765 -252.306915 1443.16341461 -251.38356757 1442.09455132 C-246.02233666 1435.87716728 -240.71338489 1429.62528985 -235.54372382 1423.24689507 C-233.77306997 1421.06540324 -231.99192626 1418.89511558 -230.19997382 1416.73127007 C-222.36127382 1407.22966989 -214.95748809 1397.4600827 -207.73415351 1387.48371148 C-206.33089722 1385.54697512 -204.91930695 1383.61672102 -203.50466132 1381.68830132 C-166.51029129 1330.94831675 -133.60435042 1270.4301454 -133.77809882 1206.17658257 C-133.77864264 1205.41355828 -133.77918647 1204.65053399 -133.77974677 1203.86438775 C-133.89493248 1168.57056397 -146.16701569 1138.0533039 -169.15309882 1111.30158257 C-169.90848945 1110.42244195 -170.66388007 1109.54330132 -171.44216132 1108.63752007 C-176.03632028 1103.4118616 -180.77684571 1098.70993415 -186.15309882 1094.30158257 C-186.64987128 1093.8818316 -187.14664374 1093.46208062 -187.65846992 1093.02960992 C-201.36292788 1081.45829813 -216.30453715 1072.29888868 -231.96559882 1063.61408257 C-232.89058173 1063.09652398 -233.81556464 1062.57896539 -234.76857734 1062.0457232 C-241.11411115 1058.37124251 -241.11411115 1058.37124251 -248.15309882 1057.30158257 C-251.80759165 1058.72014211 -255.17204208 1060.58001842 -258.59059882 1062.48908257 C-260.42209675 1063.483555 -262.25416196 1064.47698313 -264.08669257 1065.46955132 C-265.15387519 1066.05148248 -266.22105781 1066.63341363 -267.32057929 1067.23297906 C-285.32350303 1076.98952111 -303.6499127 1086.13025584 -321.96852851 1095.27448297 C-325.4552705 1097.01500448 -328.94018126 1098.75915793 -332.4246347 1100.50425553 C-348.59193196 1108.59920833 -364.80673938 1116.57269963 -381.15309882 1124.30158257 C-382.62947376 1125.00254534 -384.10571812 1125.7037832 -385.58180976 1126.40534234 C-389.56049402 1128.29468908 -393.54310093 1130.17559231 -397.52809882 1132.05158257 C-398.23643867 1132.38507714 -398.94477851 1132.71857171 -399.6745832 1133.06217217 C-413.55872945 1139.59315111 -427.50784046 1145.97481892 -441.4912641 1152.29000115 C-446.18166966 1154.40849338 -450.86864808 1156.53439166 -455.55359626 1158.66492486 C-478.13225231 1168.93252353 -500.7793175 1179.02934591 -523.50951362 1188.95682549 C-529.43206042 1191.54479284 -535.34701528 1194.14954745 -541.25856757 1196.76252007 C-565.54544253 1207.49041812 -589.94909967 1217.92056877 -614.44271064 1228.1674273 C-617.06977728 1229.26671688 -619.69621776 1230.36749004 -622.32253242 1231.46857476 C-707.19403743 1267.02929846 -793.12744436 1301.52812487 -882.15309882 1325.30158257 C-882.81765082 1325.47991632 -883.48220283 1325.65825006 -884.16689277 1325.84198785 C-937.97006488 1340.26314323 -988.77424981 1345.85565945 -1039.15309882 1317.30158257 C-1052.4491899 1308.91050533 -1063.41208215 1298.43915287 -1067.81716132 1282.96955132 C-1071.18357383 1256.2339729 -1060.83597908 1232.36391711 -1044.71413398 1211.43341851 C-1041.33643442 1207.26063814 -1037.76469306 1203.27171569 -1034.15309882 1199.30158257 C-1033.23582131 1198.27478419 -1032.31913755 1197.24745502 -1031.40309882 1196.21955132 C-1022.8307004 1186.66962596 -1013.88761749 1177.28032647 -1004.09841132 1168.96564507 C-1001.8007695 1167.00019243 -999.57436759 1164.96428386 -997.34059882 1162.92658257 C-993.02535306 1159.0323364 -988.58218127 1155.33503533 -984.06325507 1151.68048882 C-981.48394687 1149.5720342 -978.94350207 1147.42827168 -976.41286445 1145.26227593 C-970.06541529 1139.83338684 -963.57191912 1134.65094336 -956.90261054 1129.62140679 C-955.05684912 1128.22897221 -953.2163459 1126.82974926 -951.37575507 1125.43048882 C-884.64409536 1074.85709799 -811.22568697 1031.6508806 -731.34963202 1006.00794244 C-729.23931678 1005.32930849 -727.13054779 1004.64609048 -725.02223945 1003.96125054 C-659.78280096 982.80090093 -592.46339054 967.95942674 -524.27809882 960.48908257 C-522.93157737 960.34002969 -522.93157737 960.34002969 -521.55785346 960.18796563 C-494.18988486 957.19759409 -466.96216469 955.94343138 -439.45168281 955.98590875 C-436.2233504 955.99052586 -432.99539618 955.98364352 -429.76711249 955.96540093 C-411.91087202 955.86565627 -394.18971372 956.20365931 -376.38747382 957.68048882 C-375.27359447 957.77283587 -375.27359447 957.77283587 -374.13721251 957.8670485 C-330.48322008 961.57132081 -286.90731092 969.65654051 -245.36965156 983.72516656 C-242.64369902 984.63655637 -239.90888461 985.48550871 -237.15309882 986.30158257 C-236.15331 986.63778619 -236.15331 986.63778619 -235.13332343 986.98078179 C-228.03880325 988.7305721 -222.0302883 984.07296622 -216.09059882 980.67658257 C-214.84039893 979.98080009 -213.58924438 979.28673044 -212.33718085 978.59430718 C-209.80034803 977.18652383 -207.27093574 975.76664244 -204.7473371 974.33527398 C-201.55073446 972.52239746 -198.33751997 970.74137387 -195.11794257 968.96955132 C-138.23126817 937.49938397 -85.23475393 898.84778981 -34.95729804 857.77375054 C-33.37036836 856.47886746 -31.77961146 855.18867779 -30.18825507 853.89923882 C-24.49079401 849.27266619 -18.9001385 844.53485811 -13.34401679 839.74054742 C-9.83035171 836.71523853 -6.27162267 833.76422302 -2.65309882 830.86408257 C3.02003634 826.26356381 8.31310256 821.29267208 13.63596368 816.29767632 C16.02049602 814.06243524 18.43452178 811.87457978 20.90940118 809.73908257 C26.09955783 805.25567066 31.09602906 800.55873207 36.12375665 795.89533257 C37.83008658 794.31713453 39.54246026 792.74579137 41.25705743 791.17658257 C46.81907925 786.08008307 52.30431976 780.95484709 57.55393243 775.53205132 C59.4929484 773.64588757 61.46960142 771.88695833 63.51926446 770.12482476 C67.63420654 766.53395618 71.5274925 762.76605817 75.38205743 758.89923882 C76.06440957 758.21784341 76.74676171 757.53644799 77.44979119 756.83440423 C78.88034554 755.40452517 80.30965885 753.97340346 81.73777032 752.54108453 C83.90389192 750.36960546 86.07530292 748.20351932 88.2472918 746.0379107 C89.64670105 744.63784056 91.04580001 743.23746019 92.44455743 741.83673882 C93.08329293 741.20002755 93.72202844 740.56331628 94.38011956 739.90731072 C98.18595176 736.08195008 101.80390025 732.14317234 105.31954217 728.04912591 C108.11198015 724.85412961 111.18395995 721.94707798 114.22190118 718.98908257 C116.93365266 716.21276559 119.46344859 713.32547345 122.00412774 710.39386773 C124.98688515 707.00724465 128.11125026 703.75776552 131.22190118 700.48908257 C136.28394444 695.13437831 141.08429114 689.70651397 145.67502618 683.94220757 C148.12733314 680.96062573 150.71778573 678.12599859 153.34690118 675.30158257 C157.57654641 670.75061546 161.56771371 666.05859766 165.46408868 661.21955132 C168.22232695 657.84183986 171.05968833 654.53956738 173.90940118 651.23908257 C177.94601342 646.5530886 181.90417369 641.82460314 185.73752618 636.96955132 C187.34099773 634.94145675 188.95541749 632.9248846 190.58127618 630.91486382 C197.32503282 622.56560934 203.86040991 614.08445956 210.24778008 605.4597857 C211.93693783 603.18006746 213.63217941 600.90494257 215.32736993 598.62970757 C222.72841715 588.67092319 229.9545788 578.61968884 236.84690118 568.30158257 C237.33980645 567.56423882 237.83271173 566.82689507 238.34055352 566.06720757 C250.98703006 547.06361472 262.84961337 527.51317192 273.69504571 507.42462945 C274.84384564 505.30721439 276.01432897 503.20286879 277.18674493 501.09845757 C290.22657546 477.37443032 300.3906383 451.97854406 308.84690118 426.30158257 C309.27857598 425.01356744 309.27857598 425.01356744 309.71897149 423.69953179 C318.62024696 396.70484989 323.11290224 367.41508877 326.84690118 339.30158257 C326.94857598 338.62160211 327.05025079 337.94162164 327.15500665 337.2410357 C333.71178822 288.66708879 322.3571568 233.93802709 292.50608087 194.53156304 C289.85978281 191.20508817 287.08323013 188.00560056 284.23801446 184.84845757 C282.84027843 183.29421828 281.4658512 181.7215569 280.09299493 180.14533257 C274.21268578 173.4712915 267.8925687 167.74288685 260.84690118 162.30158257 C259.89686212 161.52427789 258.94682305 160.7469732 257.96799493 159.94611382 C202.97869756 115.77208056 127.14491038 99.84344403 58.53440118 92.05158257 C57.53246728 91.93574822 57.53246728 91.93574822 56.51029229 91.81757379 C51.29623217 91.22457119 46.07606088 90.74059009 40.84690118 90.30158257 C39.81465417 90.21437951 38.78240716 90.12717645 37.71887994 90.03733087 C15.46326223 88.22717199 -6.72135581 87.93849914 -29.0395925 87.98352456 C-31.88495416 87.98917059 -34.73030983 87.99198836 -37.57567573 87.99460626 C-67.86137046 88.03505397 -97.95988406 88.7749257 -128.15309882 91.30158257 C-130.28655331 91.47503382 -132.42001707 91.6483711 -134.55348945 91.82160211 C-205.03449782 97.62215562 -274.86106718 108.27415773 -344.15309882 122.30158257 C-345.12239326 122.49711724 -346.09168769 122.69265191 -347.09035468 122.89411187 C-423.0220822 138.23509136 -498.04054289 157.80679187 -572.15309882 180.30158257 C-573.23687812 180.62989068 -574.32065742 180.95819879 -575.43727851 181.29645562 C-611.17445121 192.12755995 -646.72357663 203.5042821 -682.15309882 215.30158257 C-683.09010627 215.61313287 -684.02711371 215.92468316 -684.99251533 216.24567437 C-769.68002272 244.42207157 -852.95612698 277.24532827 -934.15309882 314.30158257 C-935.20674628 314.78224175 -936.26039374 315.26290093 -937.34596992 315.75812554 C-943.80446998 318.71066819 -950.24939249 321.6915133 -956.68679023 324.68976617 C-959.65931101 326.07197368 -962.635 327.44708841 -965.61179328 328.82006097 C-984.20311837 337.40673547 -1002.57907988 346.40933184 -1020.90309882 355.55158257 C-1021.99499518 356.09494256 -1023.08689155 356.63830255 -1024.21187568 357.19812799 C-1038.22515321 364.17852861 -1052.05090082 371.42860074 -1065.7594831 378.9887774 C-1069.17525001 380.86219277 -1072.61175543 382.69496439 -1076.05544257 384.51642632 C-1077.21994941 385.13275933 -1078.38445624 385.74909234 -1079.58425117 386.38410211 C-1080.74134589 386.99624566 -1081.89844062 387.60838922 -1083.09059882 388.23908257 C-1125.20324307 410.60173234 -1166.31591787 435.10114707 -1206.15309882 461.30158257 C-1206.94184394 461.82010797 -1207.73058906 462.33863336 -1208.54323554 462.87287164 C-1228.45934967 475.99544246 -1248.05806541 489.5493979 -1267.16970038 503.82062554 C-1268.89817396 505.11123617 -1270.63075488 506.39634236 -1272.36403632 507.68048882 C-1296.02336092 525.27913712 -1319.03528464 543.83513095 -1340.64675117 563.90851617 C-1342.18975149 565.33547887 -1343.74240548 566.75124073 -1345.29763007 568.16486382 C-1355.466356 577.43076616 -1365.63595523 586.88761484 -1374.53200507 597.40314507 C-1376.43403532 599.63058291 -1378.41917602 601.77181229 -1380.40309882 603.92658257 C-1385.49995804 609.57726011 -1390.15545758 615.53269394 -1394.79763007 621.55646539 C-1396.06646396 623.19004331 -1397.3589719 624.80515557 -1398.65309882 626.41877007 C-1423.14868968 657.27379318 -1439.11065873 692.88923355 -1445.15309882 731.73908257 C-1447.68214016 747.82171061 -1452.91674783 763.74541633 -1466.15309882 774.30158257 C-1480.53213699 784.67363847 -1495.3416565 790.79903559 -1513.52809882 788.73908257 C-1522.60107525 787.11269785 -1528.49152707 783.63324431 -1534.54763007 776.75470757 C-1539.56774957 769.0840627 -1540.76169501 762.44041 -1540.71950507 753.34845757 C-1540.72570365 752.21241082 -1540.73190223 751.07636407 -1540.73828864 749.90589166 C-1540.74536678 747.50557072 -1540.74224808 745.10520049 -1540.72951484 742.70490289 C-1540.71579601 739.10334896 -1540.74957871 735.50447427 -1540.78786445 731.90314507 C-1540.96958221 677.7757458 -1510.3040414 625.0733403 -1475.64528632 585.19220757 C-1473.34779056 582.52740058 -1471.1521367 579.80744541 -1468.96559882 577.05158257 C-1458.86313299 564.69426057 -1447.41162219 553.46990329 -1436.15309882 542.17658257 C-1435.66468513 541.68549005 -1435.17627143 541.19439752 -1434.67305732 540.6884234 C-1429.55006189 535.54408125 -1424.39186382 530.50696251 -1418.87819648 525.78156304 C-1416.47767619 523.72212998 -1414.16366454 521.57261841 -1411.84059882 519.42658257 C-1407.3551233 515.33597698 -1402.74729339 511.45340414 -1398.02419257 507.64142632 C-1395.47556855 505.56438444 -1392.96604318 503.45209787 -1390.46706367 501.31623101 C-1383.1892481 495.09807937 -1375.7328158 489.14661145 -1368.15309882 483.30158257 C-1367.36338691 482.69121148 -1366.57367499 482.08084039 -1365.76003242 481.4519732 C-1354.76705955 472.96910783 -1343.67185401 464.69006391 -1332.26345038 456.77472711 C-1330.16127403 455.30728933 -1328.07377929 453.82100526 -1325.98903632 452.32892632 C-1309.08973833 440.28602765 -1291.64502937 429.04463976 -1274.27901435 417.69196343 C-1271.30445727 415.74655819 -1268.3323808 413.79738461 -1265.36013007 411.84845757 C-1259.96809444 408.31683974 -1254.5659432 404.80122201 -1249.15309882 401.30158257 C-1248.28507636 400.74035699 -1247.4170539 400.1791314 -1246.52272773 399.60089898 C-1232.04897555 390.26581987 -1217.37151832 381.28126011 -1202.62087226 372.39337945 C-1199.30693078 370.39600489 -1195.99937551 368.38820302 -1192.69216132 366.37970757 C-1179.33939777 358.29144461 -1165.82261722 350.55352444 -1152.17018867 342.98371148 C-1148.31501746 340.83432407 -1144.48093565 338.64900348 -1140.64675117 336.46247125 C-1119.08199203 324.17915142 -1097.09883453 312.6868807 -1075.0417707 301.31842828 C-1072.02615437 299.75892009 -1069.01952445 298.18277319 -1066.01442695 296.60309625 C-1052.53422815 289.5238877 -1038.96108497 282.6674531 -1025.27809882 275.98908257 C-1024.26429145 275.49334741 -1023.25048408 274.99761224 -1022.20595527 274.48685479 C-1006.27491957 266.70368087 -990.24864057 259.18367071 -974.05954719 251.95471978 C-969.29980749 249.82618214 -964.56083342 247.65519137 -959.82888007 245.46564507 C-883.30804107 210.0886203 -804.62801771 179.35358099 -725.15309882 151.30158257 C-724.23440009 150.9771618 -723.31570136 150.65274102 -722.36916327 150.31848931 C-651.76756888 125.40834867 -580.4071545 102.91931568 -508.15309882 83.30158257 C-506.67849189 82.89996911 -506.67849189 82.89996911 -505.17409492 82.49024224 C-416.37557753 58.30921531 -326.46624482 37.79569762 -84.40309882 4.05158257 C-83.5092649 3.97445031 -82.61543097 3.89731805 -81.69451118 3.81784844 C-54.46200722 1.49470095 -27.33367838 -0.02140356 0 0 Z M-659.52492499 1069.97467828 C-669.93934272 1074.3300673 -669.93934272 1074.3300673 -675.04763007 1075.71955132 C-681.74167458 1077.61116759 -687.97483472 1080.67508686 -694.26808906 1083.59479547 C-696.39263296 1084.58023828 -698.52132684 1085.55611843 -700.6511457 1086.5300982 C-721.65929035 1096.17581868 -742.40195674 1106.37962522 -763.06325507 1116.74298882 C-763.88143273 1117.15335948 -764.6996104 1117.56373013 -765.54258132 1117.98653626 C-773.13373273 1121.79521105 -780.72232202 1125.60897535 -788.3086164 1129.427315 C-793.32883925 1131.95351454 -798.35126582 1134.47528578 -803.37575507 1136.99298882 C-804.59077327 1137.60203215 -804.59077327 1137.60203215 -805.83033729 1138.22337937 C-817.55134895 1144.09079199 -829.34152546 1149.76763746 -841.29007697 1155.15828729 C-854.65582961 1161.22474609 -867.06616007 1168.6381025 -878.15309882 1178.30158257 C-878.91751288 1178.9229107 -879.68192695 1179.54423882 -880.46950507 1180.18439507 C-891.64325752 1189.52421523 -901.12450137 1203.1305358 -902.48903632 1217.95002007 C-902.63141652 1231.53309089 -898.72627937 1239.26400888 -889.49684882 1249.05939507 C-878.60388734 1259.28439194 -864.32101097 1258.89692296 -850.3464582 1258.47199273 C-761.51457054 1253.73157548 -666.04803191 1202.15448508 -514.36592841 1135.31458306 C-512.06179871 1134.25978674 -509.75711948 1133.20619708 -507.45241523 1132.15265679 C-486.96533062 1122.78237068 -466.58577841 1113.22474253 -446.35359931 1103.31574273 C-442.64739342 1101.50486968 -438.93138327 1099.71652888 -435.20485663 1097.94782281 C-419.74447082 1090.60811279 -404.41960052 1083.01257916 -389.11794257 1075.34919 C-385.59785654 1073.58628861 -382.07595515 1071.82704806 -378.55357814 1070.06872964 C-364.31422717 1062.95888257 -350.10728134 1055.80450429 -336.06185126 1048.3163836 C-333.13810907 1046.76195647 -330.2025205 1045.23090476 -327.26638007 1043.70002007 C-325.80168281 1042.93625054 -325.80168281 1042.93625054 -324.3073957 1042.15705132 C-323.36960273 1041.66849664 -322.43180976 1041.17994195 -321.46559882 1040.67658257 C-320.45432929 1040.14935601 -319.44305976 1039.62212945 -318.4011457 1039.07892632 C-315.98530185 1037.81948167 -313.56928956 1036.56036156 -311.15309882 1035.30158257 C-315.49444386 1032.40735255 -320.00987079 1031.89992547 -325.09059882 1030.92658257 C-326.21707831 1030.71034234 -327.34355781 1030.49410211 -328.50417304 1030.27130914 C-338.55019963 1028.43446014 -348.63021068 1027.1672184 -358.77809882 1026.05158257 C-359.89848044 1025.92750024 -359.89848044 1025.92750024 -361.04149604 1025.80091119 C-441.39192603 1017.00939112 -522.49215222 1024.92637461 -659.52492499 1069.97467828 Z " fill="#CBB677" transform="translate(1540.15309882164,-0.30158257484436035)"/>
<path d="M0 0 C1.00771957 0.00506058 1.00771957 0.00506058 2.03579712 0.01022339 C37.28700062 0.26496852 71.66375849 13.53070936 96.9375 38.4375 C103.49141766 45.1046603 108.0183658 52.60361529 108.25 62.125 C108.04247127 76.53095265 96.14374156 85.42161181 86.54296875 94.9296875 C83.86221655 97.50996174 81.1102575 99.95987705 78.28515625 102.37890625 C69.39526132 110.17420513 60.8486944 118.37414444 52.59765625 126.83984375 C50.55681062 128.83274 48.5063536 130.68726218 46.34375 132.5390625 C41.29935871 136.91315787 36.60014754 141.62466977 31.8918457 146.3527832 C30.3775742 147.87241668 28.8580257 149.38662517 27.33789062 150.90039062 C22.5857198 155.64965024 17.96533703 160.45618214 13.59399414 165.56274414 C9.91379781 169.72784769 5.86434728 173.5475655 1.8984375 177.4375 C-2.07215209 181.3620982 -5.84796862 185.37795959 -9.47070312 189.62695312 C-11.09837227 191.47830195 -12.80238052 193.21233435 -14.5625 194.9375 C-17.5079073 197.83749353 -20.21713709 200.87376431 -22.9140625 204.00390625 C-25.73870071 207.20345099 -28.6499916 210.31804263 -31.5625 213.4375 C-35.55767034 217.72008862 -39.50833099 222.02355695 -43.33203125 226.4609375 C-45.49287207 228.92907623 -47.71687702 231.33554009 -49.9375 233.75 C-53.22682238 237.35141171 -56.38267636 241.01057275 -59.4375 244.8125 C-62.82635969 249.015644 -66.37489266 252.99953177 -70.0625 256.9375 C-74.56208994 261.74296293 -78.79353247 266.6891098 -82.91796875 271.82421875 C-85.06124956 274.43597623 -87.2863033 276.94115302 -89.5625 279.4375 C-93.40319657 283.65629623 -97.02160346 288.01468295 -100.609375 292.44921875 C-103.39701887 295.84499512 -106.25439115 299.17441489 -109.125 302.5 C-113.19475998 307.21987935 -117.15306532 312.00248769 -121.015625 316.89453125 C-123.41344387 319.87350087 -125.89094379 322.78063492 -128.375 325.6875 C-132.62398164 330.66929188 -136.70707073 335.75627197 -140.72583008 340.92480469 C-144.4235598 345.66424922 -148.2274019 350.30877204 -152.0625 354.9375 C-156.79743651 360.65634439 -161.45802971 366.42153325 -166.02392578 372.27612305 C-169.29105037 376.46485151 -172.60621615 380.61218339 -175.9375 384.75 C-180.79201263 390.78938556 -185.51159693 396.92315386 -190.19995117 403.09204102 C-193.81961673 407.84335969 -197.50484991 412.53456268 -201.25 417.1875 C-206.62142953 423.86238714 -211.86537396 430.6261858 -217.0625 437.4375 C-218.11572242 438.81522879 -219.16911672 440.19282619 -220.22265625 441.5703125 C-221.89959159 443.76292398 -223.57637182 445.9556524 -225.25244141 448.14892578 C-228.45170114 452.33488186 -231.65879978 456.51454778 -234.875 460.6875 C-244.19080712 472.78891611 -253.46258782 484.92552553 -262.59765625 497.1640625 C-264.65035449 499.90158718 -266.72831648 502.61932203 -268.80859375 505.3359375 C-275.14762582 513.61605485 -281.47492442 521.88617248 -287.48291016 530.41064453 C-290.53431277 534.73102294 -293.68770837 538.96657556 -296.875 543.1875 C-301.68885077 549.56681813 -306.39452114 556.01676835 -311.05908203 562.50585938 C-315.08219798 568.09678085 -319.15512029 573.64896967 -323.25 579.1875 C-329.90550144 588.19750775 -336.43624996 597.28769735 -342.88671875 606.4453125 C-343.88281129 607.85937586 -344.87890506 609.27343834 -345.875 610.6875 C-346.37821777 611.40228516 -346.88143555 612.11707031 -347.39990234 612.85351562 C-350.99679652 617.95319834 -354.64517691 623.01331966 -358.3125 628.0625 C-365.38379462 637.81092219 -372.23595783 647.70862309 -379.09570312 657.60644531 C-382.13221652 661.97727566 -385.19195943 666.33171953 -388.25 670.6875 C-393.77056485 678.55953212 -399.22142366 686.47713304 -404.63671875 694.421875 C-406.56145042 697.24537086 -408.49284669 700.06409721 -410.43237305 702.87744141 C-417.85427925 713.64482413 -425.19137207 724.46795931 -432.5 735.3125 C-433.1176825 736.2289328 -433.73536499 737.1453656 -434.37176514 738.08956909 C-438.93998658 744.86909336 -443.50286136 751.65220072 -448.0625 758.4375 C-448.70765564 759.39750916 -449.35281128 760.35751831 -450.01751709 761.34661865 C-453.81503887 766.9993745 -457.60703369 772.65578437 -461.3923645 778.31671143 C-462.56766186 780.07349357 -463.74411128 781.82950566 -464.92184448 783.58465576 C-471.28441955 793.07018355 -477.50267476 802.61147008 -483.38967896 812.40101624 C-486.08147919 816.87512393 -488.88608355 821.23765613 -491.8125 825.5625 C-497.54517083 834.05910018 -502.93210033 842.76529636 -508.34375 851.46875 C-511.0465336 855.81526731 -513.77360513 860.14501022 -516.5222168 864.46264648 C-531.57176925 888.12084409 -545.81057335 912.29367502 -560.0625 936.4375 C-560.44144409 937.07917114 -560.82038818 937.72084229 -561.21081543 938.38195801 C-571.00447231 954.96855004 -580.6643111 971.62276879 -590.0625 988.4375 C-590.64708984 989.4805127 -591.23167969 990.52352539 -591.83398438 991.59814453 C-606.77334682 1018.26593844 -621.19032172 1045.19939889 -635.0625 1072.4375 C-635.44960144 1073.19732178 -635.83670288 1073.95714355 -636.23553467 1074.73999023 C-667.69130769 1136.53869563 -695.83085526 1200.28806073 -708.89233398 1268.76538086 C-711.6231375 1282.97694172 -715.0734393 1296.97387276 -718.625 1311 C-719.20809704 1313.32085938 -719.79078131 1315.6418225 -720.37304688 1317.96289062 C-720.93713268 1320.20582158 -721.50157306 1322.44866339 -722.06640625 1324.69140625 C-722.32273331 1325.70932755 -722.57906036 1326.72724884 -722.84315491 1327.77601624 C-724.07345912 1332.63333516 -725.34439342 1337.4729285 -726.69213867 1342.29907227 C-727.70605438 1345.99285374 -728.52445121 1349.5885283 -728.984375 1353.3984375 C-729.11900146 1354.43210449 -729.25362793 1355.46577148 -729.39233398 1356.53076172 C-729.53098877 1357.61373535 -729.66964355 1358.69670898 -729.8125 1359.8125 C-731.85685167 1374.62864261 -735.37482502 1388.95917308 -739.0625 1403.4375 C-742.39523474 1416.69958969 -745.25271929 1429.87510354 -747.0625 1443.4375 C-747.3409375 1445.37689453 -747.3409375 1445.37689453 -747.625 1447.35546875 C-748.357849 1454.22259026 -748.28620866 1461.14685831 -748.30273438 1468.0456543 C-748.31238161 1470.47024633 -748.34345358 1472.89396737 -748.375 1475.31835938 C-748.5323974 1498.32402646 -743.35928467 1519.4467096 -727.82421875 1536.9609375 C-717.97919019 1546.65704966 -705.51437187 1551.34532853 -692.37768555 1554.71801758 C-681.22584458 1557.60869375 -672.08098029 1562.32490621 -665.8125 1572.25 C-659.23048516 1584.09762672 -657.29299224 1597.72623088 -660.34765625 1611.04296875 C-662.35957391 1617.78234322 -664.89985059 1621.87269348 -670.57421875 1626.11328125 C-676.93743614 1629.49967166 -683.32038127 1631.02376046 -690.5 1631 C-691.29929932 1630.99758301 -692.09859863 1630.99516602 -692.92211914 1630.99267578 C-704.59159989 1630.65449403 -715.84910766 1627.45187177 -727.0625 1624.4375 C-727.97741211 1624.19725098 -728.89232422 1623.95700195 -729.83496094 1623.70947266 C-767.59414897 1613.66925198 -801.86640165 1594.70137703 -822.41015625 1560.60546875 C-839.15631508 1531.54553866 -843.51580527 1497.36799902 -843.4375 1464.375 C-843.43662384 1463.45210175 -843.43574768 1462.52920349 -843.43484497 1461.57833862 C-843.37388501 1441.75749301 -841.67801749 1422.26923555 -839.42047119 1402.59326172 C-839.03185264 1399.16732252 -838.65613141 1395.74012881 -838.28271484 1392.3125 C-829.20510329 1309.10134137 -810.21463909 1231.19189887 -758.0625 1105.4375 C-757.49371204 1104.16882875 -756.92503182 1102.9001092 -756.35644531 1101.63134766 C-748.07547385 1083.16864865 -739.50239959 1064.87170069 -730.63671875 1046.68310547 C-728.76470129 1042.82352108 -726.92588308 1038.94891115 -725.09057617 1035.07177734 C-714.40517963 1012.52528446 -703.28361832 990.13164997 -691.50195312 968.13671875 C-690.05778382 965.42865637 -688.62472521 962.71486872 -687.19415283 959.99960327 C-679.85833737 946.07617367 -672.47031282 932.20043912 -664.66259766 918.53393555 C-661.06425552 912.23374157 -657.57219502 905.8839892 -654.125 899.5 C-649.43368918 890.83579085 -644.54163681 882.30507134 -639.54833984 873.81176758 C-635.38473373 866.72570651 -631.30212253 859.59755997 -627.24871826 852.44796753 C-620.35941143 840.30400116 -613.21497827 828.33521155 -605.93173218 816.4239502 C-602.56516238 810.91796722 -599.2439762 805.39147192 -596 799.8125 C-590.25302575 789.95419078 -584.22499116 780.26755193 -578.22557068 770.56164551 C-575.79825293 766.63344686 -573.38109329 762.69913991 -570.96875 758.76171875 C-563.0578888 745.85472535 -555.04751935 733.01966563 -546.87939453 720.27392578 C-544.94639077 717.25623729 -543.0178282 714.23574127 -541.08984375 711.21484375 C-539.72669166 709.08064667 -538.36341292 706.94653047 -537 704.8125 C-536.39994141 703.87269287 -535.79988281 702.93288574 -535.18164062 701.96459961 C-524.72134179 685.61552968 -514.08405263 669.38084404 -503.40576172 653.17358398 C-501.56182134 650.37396961 -499.7203524 647.57273975 -497.87890625 644.77148438 C-490.55087763 633.63849556 -483.1154967 622.58703819 -475.55584717 611.61006165 C-472.94354491 607.80961403 -470.34805453 603.99769428 -467.75 600.1875 C-455.66466394 582.50527994 -443.3678779 564.96703323 -431.0625 547.4375 C-430.2897876 546.33631836 -430.2897876 546.33631836 -429.50146484 545.21289062 C-422.31671535 534.98125379 -415.03503423 524.8229926 -407.69921875 514.69921875 C-406.07740936 512.45810267 -404.45984868 510.21398685 -402.84375 507.96875 C-395.57328243 497.87136915 -388.22305585 487.83550037 -380.82861328 477.82861328 C-378.48653301 474.65770725 -376.14819409 471.48405382 -373.81030273 468.31005859 C-372.64487185 466.72804192 -371.47901873 465.1463362 -370.31274414 463.56494141 C-367.38858808 459.59944479 -364.47009382 455.63000348 -361.5625 451.65234375 C-355.22900667 443.00010286 -348.79227945 434.44868171 -342.18066406 426.00683594 C-337.82111118 420.43534208 -333.55540509 414.80020485 -329.32421875 409.13085938 C-325.42555346 403.90999258 -321.47163733 398.73455752 -317.48828125 393.578125 C-315.85704864 391.46619099 -314.2287315 389.35240155 -312.60546875 387.234375 C-306.93996163 379.84429154 -301.20883177 372.50827447 -295.44482422 365.19482422 C-294.08593381 363.46729098 -292.73166291 361.73624535 -291.37890625 360.00390625 C-285.96281498 353.07442291 -280.46592026 346.21798364 -274.90332031 339.40551758 C-271.36160862 335.0603523 -267.88110914 330.67316588 -264.4375 326.25 C-260.40225559 321.07281585 -256.23131581 316.03301633 -251.96948242 311.04125977 C-248.67787692 307.18215633 -245.49307056 303.25341302 -242.33984375 299.28125 C-234.48971439 289.47868709 -226.45359714 279.83012557 -218.2487793 270.32299805 C-215.31990267 266.92385523 -212.44953946 263.48702235 -209.625 260 C-204.48953364 253.68013779 -199.13782679 247.55381988 -193.78710938 241.41650391 C-190.87395303 238.07363226 -187.96805285 234.72447994 -185.0625 231.375 C-184.53495117 230.76817383 -184.00740234 230.16134766 -183.46386719 229.53613281 C-180.28471683 225.87288919 -177.15590994 222.17347487 -174.0625 218.4375 C-175.1246875 218.60507812 -176.186875 218.77265625 -177.28125 218.9453125 C-191.89588352 221.11357885 -191.89588352 221.11357885 -198.0625 218.4375 C-201.46841568 215.53884836 -203.84327163 213.45126915 -204.3359375 208.92578125 C-205.63714369 168.23806477 -164.40941879 115.79525454 -137.67919922 87.26513672 C-136.14649676 85.64987766 -134.60545277 84.04296561 -133.0625 82.4375 C-132.54429687 81.89206543 -132.02609375 81.34663086 -131.4921875 80.78466797 C-123.59174696 72.49747557 -115.22448414 65.29082558 -106.0625 58.4375 C-105.07636719 57.69113281 -104.09023438 56.94476563 -103.07421875 56.17578125 C-100.07882591 53.91809003 -97.0712141 51.67740263 -94.0625 49.4375 C-91.47766753 47.50199743 -88.89508764 45.5634965 -86.3125 43.625 C-82.20448324 40.54153166 -78.09498693 37.4601845 -73.9765625 34.390625 C-67.47112695 29.53682853 -61.00212636 24.64661867 -54.625 19.625 C-54.04508301 19.1697998 -53.46516602 18.71459961 -52.86767578 18.24560547 C-50.40090082 16.30422154 -47.95365023 14.34670748 -45.54296875 12.3359375 C-32.6435583 1.71820911 -16.25171798 -0.12999737 0 0 Z " fill="#C8B274" transform="translate(967.0625,283.5625)"/>
</svg>
